<svg width="60" height="39" viewBox="0 0 60 39" fill="none" xmlns="http://www.w3.org/2000/svg">
<mask id="path-1-inside-1_2_2137" fill="white">
<path d="M59.7827 21.9643C59.3327 17.0393 58.5913 16.0802 58.3113 15.7194C57.6674 14.8858 56.6373 14.341 55.5471 13.7694C55.4855 13.7377 55.4322 13.6923 55.3916 13.6371C55.351 13.5818 55.3241 13.5181 55.3131 13.451C55.3021 13.3839 55.3072 13.3151 55.328 13.2503C55.3489 13.1854 55.385 13.1262 55.4333 13.0772C55.6352 12.8776 55.7904 12.6377 55.8882 12.3741C55.9859 12.1105 56.024 11.8294 55.9997 11.5501C55.9527 11.0548 55.7164 10.5948 55.3378 10.2614C54.9592 9.92797 54.4658 9.74544 53.9556 9.75H52.0053C51.9217 9.75048 51.8383 9.75577 51.7553 9.76584C51.6984 9.74177 51.6394 9.7226 51.579 9.70856C50.4239 7.32834 48.8424 4.06941 45.5644 2.47894C40.7024 0.121875 31.7461 0 29.9959 0C28.2456 0 19.2893 0.121875 14.4336 2.47528C11.1556 4.06575 9.5741 7.32469 8.41893 9.70491L8.40893 9.72441C8.35132 9.73231 8.29474 9.7462 8.24016 9.76584C8.1572 9.75577 8.07371 9.75048 7.99012 9.75H6.03608C5.52587 9.74544 5.03253 9.92797 4.65391 10.2614C4.2753 10.5948 4.03905 11.0548 3.99203 11.5501C3.96982 11.8288 4.0096 12.1088 4.10864 12.3711C4.20767 12.6334 4.36364 12.8717 4.56586 13.0699C4.61425 13.1188 4.65029 13.1781 4.67116 13.243C4.69203 13.3078 4.69715 13.3765 4.68612 13.4437C4.67509 13.5108 4.6482 13.5745 4.60759 13.6298C4.56698 13.685 4.51375 13.7303 4.4521 13.7621C3.36194 14.3374 2.32679 14.8822 1.68794 15.7121C1.4079 16.0777 0.667791 17.032 0.216475 21.957C-0.0335617 24.7284 -0.0710671 27.5974 0.125212 29.445C0.536522 33.2841 1.30789 35.6046 1.34039 35.7008C1.45876 36.0512 1.67664 36.3617 1.96874 36.5962C2.26085 36.8307 2.61519 36.9796 2.99063 37.0256V37.05C2.99063 37.5672 3.20138 38.0632 3.57651 38.4289C3.95163 38.7946 4.46042 39 4.99093 39H11.992C12.5225 39 13.0313 38.7946 13.4064 38.4289C13.7815 38.0632 13.9923 37.5672 13.9923 37.05C15.0687 37.05 15.8175 36.8623 16.6114 36.6624C17.7575 36.3614 18.9291 36.1611 20.1119 36.064C23.9262 35.7094 27.7193 35.5875 29.9959 35.5875C32.2262 35.5875 36.1868 35.7094 40.0073 36.064C41.1948 36.1613 42.371 36.3624 43.5216 36.6649C44.2817 36.855 45.0031 37.0305 46.002 37.0488C46.002 37.566 46.2127 38.0619 46.5878 38.4276C46.963 38.7933 47.4717 38.9988 48.0023 38.9988H55.0033C55.5338 38.9988 56.0426 38.7933 56.4177 38.4276C56.7928 38.0619 57.0036 37.566 57.0036 37.0488V37.0342C57.3799 36.989 57.7353 36.8405 58.0284 36.6059C58.3214 36.3714 58.5401 36.0604 58.6588 35.7094C58.6913 35.6131 59.4627 33.2926 59.874 29.4535C60.0703 27.6047 60.0353 24.7406 59.7827 21.9643ZM12.0345 11.3722C13.0346 9.30028 14.1785 6.95541 16.2151 5.967C19.158 4.53863 25.2577 3.89512 29.9959 3.89512C34.7341 3.89512 40.8337 4.53375 43.7766 5.967C45.8132 6.95541 46.9521 9.3015 47.9572 11.3722L48.0823 11.6366C48.1554 11.7872 48.1877 11.9535 48.1761 12.1197C48.1646 12.2859 48.1095 12.4464 48.0163 12.586C47.923 12.7256 47.7946 12.8395 47.6433 12.917C47.4921 12.9944 47.3229 13.0328 47.1521 13.0284C42.9978 12.9187 34.2465 12.5677 29.9959 12.5677C25.7452 12.5677 16.9939 12.9273 12.8333 13.037C12.6625 13.0413 12.4934 13.0029 12.3421 12.9255C12.1909 12.848 12.0625 12.7341 11.9692 12.5945C11.8759 12.455 11.8209 12.2944 11.8093 12.1282C11.7978 11.962 11.8301 11.7957 11.9032 11.6452C11.947 11.555 11.9932 11.4636 12.0345 11.3722ZM13.5259 21.0771C11.3754 21.3294 9.21106 21.4539 7.04498 21.45C5.71978 21.45 4.35333 21.0844 4.09955 19.9339C3.92577 19.16 3.94452 18.7249 4.03829 18.2873C4.11705 17.9156 4.24207 17.6451 4.86716 17.55C6.4924 17.3062 7.40128 17.6122 10.0617 18.3763C11.8257 18.8821 13.0984 19.5561 13.8235 20.0899C14.1873 20.3531 13.9935 21.0405 13.5259 21.0771ZM41.2025 31.0708C39.5573 31.2536 36.2668 31.1866 30.0334 31.1866C23.7999 31.1866 20.5107 31.2536 18.8655 31.0708C17.1677 30.8868 15.0036 29.3219 16.4814 27.9277C17.4653 27.0087 19.7606 26.3213 22.8173 25.935C25.874 25.5487 27.1679 25.35 30.0209 25.35C32.8738 25.35 34.0364 25.4719 37.2244 25.9362C40.4124 26.4006 42.8215 27.0965 43.5604 27.9289C44.9081 29.4206 42.899 30.877 41.2025 31.0781V31.0708ZM55.8922 19.9327C55.6421 21.088 54.2669 21.4488 52.9467 21.4488C50.7392 21.4493 48.5335 21.3248 46.3408 21.0758C45.9582 21.0405 45.7807 20.386 46.1682 20.0887C46.8821 19.5414 48.1685 18.8809 49.93 18.3751C52.5904 17.6109 54.1244 17.305 55.4421 17.5598C55.7634 17.6219 55.9334 17.9583 55.9534 18.1691C56.0416 18.7562 56.0209 19.354 55.8922 19.9339V19.9327Z"/>
</mask>
<path d="M59.7827 21.9643C59.3327 17.0393 58.5913 16.0802 58.3113 15.7194C57.6674 14.8858 56.6373 14.341 55.5471 13.7694C55.4855 13.7377 55.4322 13.6923 55.3916 13.6371C55.351 13.5818 55.3241 13.5181 55.3131 13.451C55.3021 13.3839 55.3072 13.3151 55.328 13.2503C55.3489 13.1854 55.385 13.1262 55.4333 13.0772C55.6352 12.8776 55.7904 12.6377 55.8882 12.3741C55.9859 12.1105 56.024 11.8294 55.9997 11.5501C55.9527 11.0548 55.7164 10.5948 55.3378 10.2614C54.9592 9.92797 54.4658 9.74544 53.9556 9.75H52.0053C51.9217 9.75048 51.8383 9.75577 51.7553 9.76584C51.6984 9.74177 51.6394 9.7226 51.579 9.70856C50.4239 7.32834 48.8424 4.06941 45.5644 2.47894C40.7024 0.121875 31.7461 0 29.9959 0C28.2456 0 19.2893 0.121875 14.4336 2.47528C11.1556 4.06575 9.5741 7.32469 8.41893 9.70491L8.40893 9.72441C8.35132 9.73231 8.29474 9.7462 8.24016 9.76584C8.1572 9.75577 8.07371 9.75048 7.99012 9.75H6.03608C5.52587 9.74544 5.03253 9.92797 4.65391 10.2614C4.2753 10.5948 4.03905 11.0548 3.99203 11.5501C3.96982 11.8288 4.0096 12.1088 4.10864 12.3711C4.20767 12.6334 4.36364 12.8717 4.56586 13.0699C4.61425 13.1188 4.65029 13.1781 4.67116 13.243C4.69203 13.3078 4.69715 13.3765 4.68612 13.4437C4.67509 13.5108 4.6482 13.5745 4.60759 13.6298C4.56698 13.685 4.51375 13.7303 4.4521 13.7621C3.36194 14.3374 2.32679 14.8822 1.68794 15.7121C1.4079 16.0777 0.667791 17.032 0.216475 21.957C-0.0335617 24.7284 -0.0710671 27.5974 0.125212 29.445C0.536522 33.2841 1.30789 35.6046 1.34039 35.7008C1.45876 36.0512 1.67664 36.3617 1.96874 36.5962C2.26085 36.8307 2.61519 36.9796 2.99063 37.0256V37.05C2.99063 37.5672 3.20138 38.0632 3.57651 38.4289C3.95163 38.7946 4.46042 39 4.99093 39H11.992C12.5225 39 13.0313 38.7946 13.4064 38.4289C13.7815 38.0632 13.9923 37.5672 13.9923 37.05C15.0687 37.05 15.8175 36.8623 16.6114 36.6624C17.7575 36.3614 18.9291 36.1611 20.1119 36.064C23.9262 35.7094 27.7193 35.5875 29.9959 35.5875C32.2262 35.5875 36.1868 35.7094 40.0073 36.064C41.1948 36.1613 42.371 36.3624 43.5216 36.6649C44.2817 36.855 45.0031 37.0305 46.002 37.0488C46.002 37.566 46.2127 38.0619 46.5878 38.4276C46.963 38.7933 47.4717 38.9988 48.0023 38.9988H55.0033C55.5338 38.9988 56.0426 38.7933 56.4177 38.4276C56.7928 38.0619 57.0036 37.566 57.0036 37.0488V37.0342C57.3799 36.989 57.7353 36.8405 58.0284 36.6059C58.3214 36.3714 58.5401 36.0604 58.6588 35.7094C58.6913 35.6131 59.4627 33.2926 59.874 29.4535C60.0703 27.6047 60.0353 24.7406 59.7827 21.9643ZM12.0345 11.3722C13.0346 9.30028 14.1785 6.95541 16.2151 5.967C19.158 4.53863 25.2577 3.89512 29.9959 3.89512C34.7341 3.89512 40.8337 4.53375 43.7766 5.967C45.8132 6.95541 46.9521 9.3015 47.9572 11.3722L48.0823 11.6366C48.1554 11.7872 48.1877 11.9535 48.1761 12.1197C48.1646 12.2859 48.1095 12.4464 48.0163 12.586C47.923 12.7256 47.7946 12.8395 47.6433 12.917C47.4921 12.9944 47.3229 13.0328 47.1521 13.0284C42.9978 12.9187 34.2465 12.5677 29.9959 12.5677C25.7452 12.5677 16.9939 12.9273 12.8333 13.037C12.6625 13.0413 12.4934 13.0029 12.3421 12.9255C12.1909 12.848 12.0625 12.7341 11.9692 12.5945C11.8759 12.455 11.8209 12.2944 11.8093 12.1282C11.7978 11.962 11.8301 11.7957 11.9032 11.6452C11.947 11.555 11.9932 11.4636 12.0345 11.3722ZM13.5259 21.0771C11.3754 21.3294 9.21106 21.4539 7.04498 21.45C5.71978 21.45 4.35333 21.0844 4.09955 19.9339C3.92577 19.16 3.94452 18.7249 4.03829 18.2873C4.11705 17.9156 4.24207 17.6451 4.86716 17.55C6.4924 17.3062 7.40128 17.6122 10.0617 18.3763C11.8257 18.8821 13.0984 19.5561 13.8235 20.0899C14.1873 20.3531 13.9935 21.0405 13.5259 21.0771ZM41.2025 31.0708C39.5573 31.2536 36.2668 31.1866 30.0334 31.1866C23.7999 31.1866 20.5107 31.2536 18.8655 31.0708C17.1677 30.8868 15.0036 29.3219 16.4814 27.9277C17.4653 27.0087 19.7606 26.3213 22.8173 25.935C25.874 25.5487 27.1679 25.35 30.0209 25.35C32.8738 25.35 34.0364 25.4719 37.2244 25.9362C40.4124 26.4006 42.8215 27.0965 43.5604 27.9289C44.9081 29.4206 42.899 30.877 41.2025 31.0781V31.0708ZM55.8922 19.9327C55.6421 21.088 54.2669 21.4488 52.9467 21.4488C50.7392 21.4493 48.5335 21.3248 46.3408 21.0758C45.9582 21.0405 45.7807 20.386 46.1682 20.0887C46.8821 19.5414 48.1685 18.8809 49.93 18.3751C52.5904 17.6109 54.1244 17.305 55.4421 17.5598C55.7634 17.6219 55.9334 17.9583 55.9534 18.1691C56.0416 18.7562 56.0209 19.354 55.8922 19.9339V19.9327Z" fill="#0066FF"/>
<path d="M59.7827 21.9643L60.7786 21.8737L60.7786 21.8733L59.7827 21.9643ZM58.3113 15.7194L57.5198 16.3307L57.5213 16.3326L58.3113 15.7194ZM55.5471 13.7694L56.0115 12.8838L56.0053 12.8806L55.5471 13.7694ZM55.4333 13.0772L54.7302 12.366L54.722 12.3743L55.4333 13.0772ZM55.9997 11.5501L56.996 11.4635L56.9952 11.4556L55.9997 11.5501ZM53.9556 9.75V10.75L53.9646 10.75L53.9556 9.75ZM52.0053 9.75V8.74998L51.9996 8.75002L52.0053 9.75ZM51.7553 9.76584L51.3658 10.6869L51.6113 10.7907L51.8758 10.7586L51.7553 9.76584ZM51.579 9.70856L50.6794 10.1452L50.8877 10.5745L51.3525 10.6826L51.579 9.70856ZM45.5644 2.47894L46.0009 1.57925L46.0006 1.5791L45.5644 2.47894ZM14.4336 2.47528L13.9974 1.5754L13.997 1.57559L14.4336 2.47528ZM8.41893 9.70491L9.30871 10.1613L9.31375 10.1515L9.31858 10.1415L8.41893 9.70491ZM8.40893 9.72441L8.5448 10.7151L9.06093 10.6444L9.2987 10.1808L8.40893 9.72441ZM8.24016 9.76584L8.11964 10.7586L8.35538 10.7872L8.57881 10.7068L8.24016 9.76584ZM7.99012 9.75L7.9959 8.75H7.99012V9.75ZM6.03608 9.75L6.02714 10.75H6.03608V9.75ZM3.99203 11.5501L2.99651 11.4556L2.99579 11.4631L2.99519 11.4707L3.99203 11.5501ZM4.56586 13.0699L5.27719 12.367L5.27149 12.3612L5.26569 12.3556L4.56586 13.0699ZM4.4521 13.7621L3.9939 12.8732L3.98541 12.8777L4.4521 13.7621ZM1.68794 15.7121L0.895503 15.1022L0.894051 15.1041L1.68794 15.7121ZM0.216475 21.957L-0.779353 21.8657L-0.77948 21.8671L0.216475 21.957ZM0.125212 29.445L-0.869193 29.5506L-0.869098 29.5515L0.125212 29.445ZM1.34039 35.7008L0.392928 36.0207L0.392992 36.0209L1.34039 35.7008ZM2.99063 37.0256H3.99063V36.1408L3.11236 36.0331L2.99063 37.0256ZM2.99063 37.05H1.99063H2.99063ZM13.9923 37.05V36.05H12.9923V37.05H13.9923ZM16.6114 36.6624L16.8556 37.6322L16.8654 37.6296L16.6114 36.6624ZM20.1119 36.064L20.1937 37.0607L20.2045 37.0597L20.1119 36.064ZM40.0073 36.064L39.9149 37.0598L39.9257 37.0607L40.0073 36.064ZM43.5216 36.6649L43.2673 37.6321L43.2789 37.635L43.5216 36.6649ZM46.002 37.0488H47.002V36.0669L46.0203 36.049L46.002 37.0488ZM57.0036 37.0342L56.8844 36.0413L56.0036 36.147V37.0342H57.0036ZM58.6588 35.7094L59.6061 36.0298L59.6063 36.0292L58.6588 35.7094ZM59.874 29.4535L60.8683 29.5601L60.8684 29.5591L59.874 29.4535ZM12.0345 11.3722L11.1339 10.9374L11.1283 10.949L11.123 10.9608L12.0345 11.3722ZM16.2151 5.967L16.6517 6.86664L16.6517 6.86664L16.2151 5.967ZM43.7766 5.967L43.3388 6.86605L43.34 6.86664L43.7766 5.967ZM47.9572 11.3722L48.8614 10.9448L48.8569 10.9355L47.9572 11.3722ZM48.0823 11.6366L47.1781 12.064L47.1827 12.0734L48.0823 11.6366ZM47.1521 13.0284L47.1257 14.0281L47.1266 14.0281L47.1521 13.0284ZM12.8333 13.037L12.8588 14.0366L12.8597 14.0366L12.8333 13.037ZM11.9032 11.6452L12.8028 12.082L12.8029 12.0817L11.9032 11.6452ZM13.5259 21.0771L13.448 20.0801L13.4287 20.0816L13.4094 20.0839L13.5259 21.0771ZM7.04498 21.45L7.04679 20.45H7.04498V21.45ZM4.09955 19.9339L5.07608 19.7185L5.07525 19.7148L4.09955 19.9339ZM4.03829 18.2873L5.01609 18.4969L5.01657 18.4946L4.03829 18.2873ZM4.86716 17.55L4.71884 16.5611L4.71681 16.5614L4.86716 17.55ZM10.0617 18.3763L9.7856 19.3375L9.78606 19.3376L10.0617 18.3763ZM13.8235 20.0899L13.2306 20.8952L13.2373 20.9L13.8235 20.0899ZM41.2025 31.0708H42.2025V29.9535L41.0921 30.0769L41.2025 31.0708ZM18.8655 31.0708L18.9759 30.0769L18.9732 30.0766L18.8655 31.0708ZM16.4814 27.9277L15.7988 27.1968L15.7951 27.2003L16.4814 27.9277ZM43.5604 27.9289L42.8124 28.5927L42.8183 28.5992L43.5604 27.9289ZM41.2025 31.0781H40.2025V32.2037L41.3202 32.0712L41.2025 31.0781ZM55.8922 19.9327H56.8922L54.9148 19.7211L55.8922 19.9327ZM52.9467 21.4488V20.4488H52.9465L52.9467 21.4488ZM46.3408 21.0758L46.4536 20.0822L46.4432 20.081L46.4328 20.0801L46.3408 21.0758ZM46.1682 20.0887L45.5598 19.295L45.5595 19.2953L46.1682 20.0887ZM49.93 18.3751L50.206 19.3363L50.2061 19.3362L49.93 18.3751ZM55.4421 17.5598L55.632 16.578L55.6319 16.5779L55.4421 17.5598ZM55.9534 18.1691L54.9579 18.2636L54.9605 18.2907L54.9645 18.3177L55.9534 18.1691ZM55.8922 19.9339H54.8922L56.8684 20.1505L55.8922 19.9339ZM60.7786 21.8733C60.3222 16.8797 59.5556 15.6916 59.1012 15.1062L57.5213 16.3326C57.627 16.4688 58.3431 17.199 58.7869 22.0553L60.7786 21.8733ZM59.1027 15.1082C58.2998 14.0686 57.0513 13.429 56.0115 12.8838L55.0828 14.6551C56.2232 15.2531 57.035 15.703 57.5198 16.3307L59.1027 15.1082ZM56.0053 12.8806C56.0793 12.9187 56.1456 12.9743 56.1974 13.0449L54.5858 14.2292C54.7189 14.4104 54.8917 14.5566 55.0889 14.6583L56.0053 12.8806ZM56.1974 13.0449C56.2494 13.1157 56.2851 13.199 56.2999 13.2888L54.3263 13.6131C54.3631 13.8372 54.4526 14.048 54.5858 14.2292L56.1974 13.0449ZM56.2999 13.2888C56.3146 13.3786 56.3077 13.4705 56.28 13.5565L54.3761 12.944C54.3067 13.1598 54.2895 13.3891 54.3263 13.6131L56.2999 13.2888ZM56.28 13.5565C56.2523 13.6425 56.2053 13.7187 56.1447 13.7801L54.722 12.3743C54.5646 12.5336 54.4455 12.7283 54.3761 12.944L56.28 13.5565ZM56.1364 13.7883C56.441 13.4872 56.6768 13.1236 56.8258 12.7218L54.9506 12.0264C54.904 12.1519 54.8295 12.268 54.7303 12.3661L56.1364 13.7883ZM56.8258 12.7218C56.9748 12.32 57.0331 11.8906 56.9959 11.4635L55.0034 11.6367C55.0149 11.7683 54.997 11.9011 54.9506 12.0264L56.8258 12.7218ZM56.9952 11.4556C56.9238 10.7031 56.5653 10.0099 55.9987 9.51093L54.6769 11.0119C54.8676 11.1798 54.9816 11.4065 55.0042 11.6446L56.9952 11.4556ZM55.9987 9.51093C55.4329 9.01262 54.7002 8.7433 53.9467 8.75004L53.9646 10.75C54.2315 10.7476 54.4855 10.8433 54.6769 11.0119L55.9987 9.51093ZM53.9556 8.75H52.0053V10.75H53.9556V8.75ZM51.9996 8.75002C51.8776 8.75072 51.7558 8.75844 51.6348 8.77313L51.8758 10.7586C51.9207 10.7531 51.9659 10.7502 52.0111 10.75L51.9996 8.75002ZM52.1448 8.84481C52.035 8.7984 51.9215 8.76153 51.8056 8.73456L51.3525 10.6826C51.3573 10.6837 51.3617 10.6851 51.3658 10.6869L52.1448 8.84481ZM52.4787 9.27195C51.3452 6.93632 49.6354 3.34271 46.0009 1.57925L45.1279 3.37863C48.0493 4.7961 49.5026 7.72037 50.6794 10.1452L52.4787 9.27195ZM46.0006 1.5791C43.4045 0.320496 39.803 -0.311774 36.7187 -0.638854C33.6046 -0.969093 30.8895 -1 29.9959 -1V1C30.8525 1 33.4906 1.03003 36.5078 1.34999C39.5547 1.67312 42.8624 2.28032 45.1282 3.37877L46.0006 1.5791ZM29.9959 -1C29.1022 -1 26.3871 -0.969093 23.2739 -0.639323C20.1906 -0.312718 16.5905 0.318605 13.9974 1.5754L14.8697 3.37516C17.1323 2.27855 20.4383 1.67223 23.4846 1.34955C26.501 1.03003 29.1392 1 29.9959 1V-1ZM13.997 1.57559C10.3625 3.33905 8.65281 6.93267 7.51929 9.26829L9.31858 10.1415C10.4954 7.71671 11.9487 4.79245 14.8701 3.37497L13.997 1.57559ZM7.52916 9.2485L7.51916 9.268L9.2987 10.1808L9.30871 10.1613L7.52916 9.2485ZM8.27307 8.73368C8.14646 8.75104 8.0219 8.7816 7.9015 8.82493L8.57881 10.7068C8.56757 10.7108 8.55617 10.7136 8.5448 10.7151L8.27307 8.73368ZM8.36067 8.77313C8.23963 8.75844 8.11783 8.75072 7.9959 8.75002L7.98434 10.75C8.02959 10.7502 8.07477 10.7531 8.11964 10.7586L8.36067 8.77313ZM7.99012 8.75H6.03608V10.75H7.99012V8.75ZM6.04502 8.75004C5.29151 8.7433 4.55886 9.01262 3.99301 9.51093L5.31482 11.0119C5.50621 10.8433 5.76023 10.7476 6.02714 10.75L6.04502 8.75004ZM3.99301 9.51093C3.42646 10.0099 3.06794 10.7031 2.99651 11.4556L4.98755 11.6446C5.01016 11.4065 5.12413 11.1798 5.31482 11.0119L3.99301 9.51093ZM2.99519 11.4707C2.96124 11.8967 3.02214 12.3245 3.1731 12.7243L5.04417 12.0179C4.99706 11.8931 4.97841 11.7608 4.98887 11.6295L2.99519 11.4707ZM3.1731 12.7243C3.32403 13.1241 3.56097 13.4853 3.86604 13.7842L5.26569 12.3556C5.1663 12.2582 5.09131 12.1427 5.04417 12.0179L3.1731 12.7243ZM3.85454 13.7727C3.7939 13.7114 3.74686 13.6352 3.71921 13.5492L5.62311 12.9367C5.55373 12.721 5.43459 12.5263 5.27719 12.367L3.85454 13.7727ZM3.71921 13.5492C3.69154 13.4632 3.68459 13.3713 3.69936 13.2815L5.67288 13.6058C5.70971 13.3817 5.69253 13.1525 5.62311 12.9367L3.71921 13.5492ZM3.69936 13.2815C3.71411 13.1917 3.74981 13.1083 3.80177 13.0376L5.41341 14.2219C5.5466 14.0407 5.63606 13.8299 5.67288 13.6058L3.69936 13.2815ZM3.80177 13.0376C3.85365 12.967 3.91995 12.9114 3.99392 12.8733L4.91027 14.651C5.10755 14.5493 5.28031 14.4031 5.41341 14.2219L3.80177 13.0376ZM3.98541 12.8777C2.95091 13.4236 1.69383 14.065 0.895505 15.1022L2.48038 16.3221C2.95975 15.6993 3.77296 15.2512 4.91879 14.6465L3.98541 12.8777ZM0.894051 15.1041C0.444623 15.6908 -0.321455 16.869 -0.779352 21.8657L1.2123 22.0483C1.65704 17.1951 2.37118 16.4647 2.48183 16.3202L0.894051 15.1041ZM-0.77948 21.8671C-1.03268 24.6737 -1.07496 27.6137 -0.869193 29.5506L1.11962 29.3394C0.932821 27.581 0.965558 24.7832 1.21243 22.0469L-0.77948 21.8671ZM-0.869098 29.5515C-0.448456 33.4777 0.342237 35.8706 0.392928 36.0207L2.28785 35.381C2.27354 35.3386 1.5215 33.0904 1.11952 29.3385L-0.869098 29.5515ZM0.392992 36.0209C0.573255 36.5545 0.903855 37.0237 1.34273 37.376L2.59476 35.8164C2.44942 35.6997 2.34426 35.5479 2.28779 35.3808L0.392992 36.0209ZM1.34273 37.376C1.78137 37.7281 2.31077 37.9497 2.86891 38.0182L3.11236 36.0331C2.91962 36.0094 2.74033 35.9332 2.59476 35.8164L1.34273 37.376ZM1.99063 37.0256V37.05H3.99063V37.0256H1.99063ZM1.99063 37.05C1.99063 37.8407 2.31309 38.5938 2.87846 39.1449L4.27455 37.7128C4.08967 37.5326 3.99063 37.2936 3.99063 37.05H1.99063ZM2.87846 39.1449C3.44297 39.6952 4.2033 40 4.99093 40V38C4.71753 38 4.4603 37.8939 4.27455 37.7128L2.87846 39.1449ZM4.99093 40H11.992V38H4.99093V40ZM11.992 40C12.7796 40 13.5399 39.6952 14.1044 39.1449L12.7083 37.7128C12.5226 37.8939 12.2654 38 11.992 38V40ZM14.1044 39.1449C14.6698 38.5938 14.9923 37.8407 14.9923 37.05H12.9923C12.9923 37.2936 12.8932 37.5326 12.7083 37.7128L14.1044 39.1449ZM13.9923 38.05C15.2012 38.05 16.0526 37.8343 16.8555 37.6322L16.3672 35.6927C15.5824 35.8903 14.9362 36.05 13.9923 36.05V38.05ZM16.8654 37.6296C17.9551 37.3434 19.0689 37.153 20.1937 37.0607L20.0301 35.0674C18.7892 35.1692 17.56 35.3793 16.3573 35.6953L16.8654 37.6296ZM20.2045 37.0597C23.9846 36.7083 27.7466 36.5875 29.9959 36.5875V34.5875C27.692 34.5875 23.8678 34.7105 20.0193 35.0683L20.2045 37.0597ZM29.9959 36.5875C32.2001 36.5875 36.1295 36.7084 39.9149 37.0598L40.0998 35.0683C36.244 34.7104 32.2522 34.5875 29.9959 34.5875V36.5875ZM39.9257 37.0607C41.055 37.1532 42.1734 37.3444 43.2674 37.632L43.7758 35.6977C42.5686 35.3804 41.3347 35.1694 40.089 35.0674L39.9257 37.0607ZM43.2789 37.635C44.049 37.8276 44.8638 38.0281 45.9837 38.0486L46.0203 36.049C45.1424 36.0329 44.5144 35.8824 43.7642 35.6948L43.2789 37.635ZM45.002 37.0488C45.002 37.8395 45.3244 38.5925 45.8898 39.1437L47.2859 37.7116C47.101 37.5314 47.002 37.2924 47.002 37.0488H45.002ZM45.8898 39.1437C46.4543 39.694 47.2146 39.9988 48.0023 39.9988V37.9988C47.7289 37.9988 47.4716 37.8927 47.2859 37.7116L45.8898 39.1437ZM48.0023 39.9988H55.0033V37.9988H48.0023V39.9988ZM55.0033 39.9988C55.7909 39.9988 56.5512 39.694 57.1158 39.1437L55.7197 37.7116C55.5339 37.8927 55.2767 37.9988 55.0033 37.9988V39.9988ZM57.1158 39.1437C57.6811 38.5925 58.0036 37.8395 58.0036 37.0488H56.0036C56.0036 37.2924 55.9045 37.5314 55.7197 37.7116L57.1158 39.1437ZM58.0036 37.0488V37.0342H56.0036V37.0488H58.0036ZM57.1228 38.027C57.6822 37.9599 58.2132 37.7388 58.6533 37.3866L57.4035 35.8252C57.2575 35.9421 57.0776 36.0181 56.8844 36.0413L57.1228 38.027ZM58.6533 37.3866C59.0935 37.0343 59.4253 36.5644 59.6061 36.0298L57.7115 35.389C57.6549 35.5565 57.5494 35.7085 57.4035 35.8252L58.6533 37.3866ZM59.6063 36.0292C59.657 35.8791 60.4477 33.4862 60.8683 29.5601L58.8797 29.347C58.4777 33.099 57.7257 35.3471 57.7114 35.3895L59.6063 36.0292ZM60.8684 29.5591C61.0741 27.6214 61.0345 24.6864 60.7786 21.8737L58.7868 22.0549C59.0361 24.7949 59.0664 27.5879 58.8796 29.348L60.8684 29.5591ZM12.935 11.8069C13.4403 10.7602 13.945 9.72523 14.5603 8.82955C15.1728 7.93804 15.848 7.25672 16.6517 6.86664L15.7785 5.06736C14.5456 5.66569 13.6305 6.65101 12.9119 7.69701C12.1961 8.73883 11.6288 9.91223 11.1339 10.9374L12.935 11.8069ZM16.6517 6.86664C17.9752 6.22426 20.106 5.72244 22.5676 5.38622C25.0031 5.05356 27.6671 4.89512 29.9959 4.89512V2.89512C27.5864 2.89512 24.8315 3.05844 22.2969 3.40462C19.7884 3.74725 17.3979 4.28137 15.7784 5.06737L16.6517 6.86664ZM29.9959 4.89512C32.325 4.89512 34.989 5.05238 37.4244 5.38443C39.886 5.72004 42.016 6.22183 43.3388 6.86605L44.2145 5.06795C42.5943 4.27892 40.2031 3.74477 37.6946 3.40276C35.1599 3.05718 32.405 2.89512 29.9959 2.89512V4.89512ZM43.34 6.86664C44.1432 7.25647 44.8171 7.93763 45.4292 8.82958C46.0445 9.72608 46.549 10.761 47.0576 11.8088L48.8569 10.9355C48.3604 9.91267 47.7929 8.7392 47.0782 7.69789C46.3605 6.65203 45.4466 5.66594 44.2133 5.06736L43.34 6.86664ZM47.0532 11.7995L47.1782 12.064L48.9863 11.2093L48.8613 10.9448L47.0532 11.7995ZM47.1827 12.0734C47.1798 12.0675 47.1779 12.0594 47.1785 12.0503L49.1737 12.189C49.1975 11.8476 49.1309 11.5069 48.9818 11.1998L47.1827 12.0734ZM47.1785 12.0503C47.1792 12.0413 47.1821 12.0345 47.1848 12.0304L48.8477 13.1416C49.037 12.8584 49.15 12.5304 49.1737 12.189L47.1785 12.0503ZM47.1848 12.0304C47.1875 12.0264 47.1891 12.026 47.1876 12.0268L48.0991 13.8071C48.4001 13.653 48.6585 13.4247 48.8477 13.1416L47.1848 12.0304ZM47.1876 12.0268C47.1859 12.0277 47.1823 12.0289 47.1776 12.0288L47.1266 14.0281C47.4636 14.0367 47.7982 13.9611 48.0991 13.8071L47.1876 12.0268ZM47.1785 12.0288C43.0561 11.9199 34.2629 11.5677 29.9959 11.5677V13.5677C34.2301 13.5677 42.9394 13.9176 47.1257 14.0281L47.1785 12.0288ZM29.9959 11.5677C25.7293 11.5677 16.9335 11.9285 12.807 12.0373L12.8597 14.0366C17.0544 13.926 25.7612 13.5677 29.9959 13.5677V11.5677ZM12.8078 12.0373C12.8031 12.0374 12.7996 12.0363 12.7979 12.0354L11.8864 13.8156C12.1872 13.9696 12.5219 14.0452 12.8588 14.0366L12.8078 12.0373ZM12.7979 12.0354C12.7963 12.0346 12.798 12.0349 12.8006 12.0389L11.1378 13.1502C11.3269 13.4332 11.5854 13.6615 11.8864 13.8156L12.7979 12.0354ZM12.8006 12.0389C12.8034 12.043 12.8063 12.0499 12.8069 12.0589L10.8117 12.1976C10.8355 12.539 10.9485 12.8669 11.1378 13.1502L12.8006 12.0389ZM12.8069 12.0589C12.8075 12.0679 12.8056 12.076 12.8028 12.082L11.0036 11.2084C10.8545 11.5154 10.788 11.8561 10.8117 12.1976L12.8069 12.0589ZM12.8029 12.0817C12.8366 12.0121 12.8971 11.8917 12.9459 11.7835L11.123 10.9608C11.0893 11.0354 11.0573 11.0978 11.0035 11.2086L12.8029 12.0817ZM13.4094 20.0839C11.2981 20.3316 9.17334 20.4539 7.04679 20.45L7.04316 22.45C9.24878 22.454 11.4526 22.3272 13.6425 22.0702L13.4094 20.0839ZM7.04498 20.45C6.45529 20.45 5.93506 20.366 5.57047 20.2069C5.22721 20.0571 5.11393 19.8901 5.07607 19.7185L3.12302 20.1493C3.33895 21.1282 4.03579 21.7193 4.7705 22.0399C5.48388 22.3512 6.30947 22.45 7.04498 22.45V20.45ZM5.07525 19.7148C4.92834 19.0605 4.9569 18.7731 5.01609 18.4969L3.06049 18.0778C2.93215 18.6767 2.9232 19.2594 3.12384 20.153L5.07525 19.7148ZM5.01657 18.4946C5.02358 18.4615 5.02904 18.4395 5.0333 18.4244C5.03749 18.4095 5.03932 18.4057 5.03787 18.4093C5.03623 18.4132 5.03073 18.4258 5.01981 18.4434C5.00858 18.4615 4.99343 18.4819 4.97415 18.5023C4.95482 18.5227 4.9354 18.5388 4.91831 18.5505C4.90162 18.562 4.8906 18.5671 4.88901 18.5678C4.88778 18.5683 4.89613 18.5646 4.91746 18.5588C4.9389 18.5529 4.97136 18.5457 5.01751 18.5386L4.71681 16.5614C4.28492 16.627 3.85167 16.7787 3.52155 17.1276C3.20195 17.4652 3.10653 17.8605 3.06001 18.0801L5.01657 18.4946ZM5.01548 18.5389C6.38315 18.3338 7.06673 18.5565 9.7856 19.3375L10.3377 17.4152C7.73583 16.6678 6.60165 16.2787 4.71884 16.5611L5.01548 18.5389ZM9.78606 19.3376C11.455 19.8161 12.6159 20.4427 13.2306 20.8952L14.4163 19.2846C13.5808 18.6695 12.1964 17.9481 10.3373 17.415L9.78606 19.3376ZM13.2373 20.9C12.9731 20.7089 13.0094 20.4466 13.0269 20.3869C13.047 20.3187 13.1552 20.103 13.448 20.0801L13.6039 22.074C14.3643 22.0146 14.8032 21.4369 14.946 20.95C15.0864 20.4717 15.0376 19.7341 14.4097 19.2797L13.2373 20.9ZM41.0921 30.0769C39.5201 30.2516 36.3318 30.1866 30.0334 30.1866V32.1866C36.2018 32.1866 39.5944 32.2556 41.3129 32.0647L41.0921 30.0769ZM30.0334 30.1866C23.7349 30.1866 20.5479 30.2516 18.9759 30.0769L18.755 32.0647C20.4735 32.2556 23.8649 32.1866 30.0334 32.1866V30.1866ZM18.9732 30.0766C18.3271 30.0066 17.5882 29.6582 17.2018 29.2583C17.0153 29.0652 16.9915 28.9456 16.9898 28.9187C16.9892 28.9097 16.9889 28.8947 17.0029 28.8636C17.0187 28.8282 17.0606 28.756 17.1676 28.655L15.7951 27.2003C15.2593 27.7058 14.9497 28.3393 14.9937 29.0435C15.0352 29.7079 15.3814 30.2524 15.7634 30.6479C16.5141 31.425 17.7061 31.951 18.7577 32.065L18.9732 30.0766ZM17.1639 28.6585C17.4904 28.3535 18.1377 28.0067 19.1686 27.6866C20.1746 27.3742 21.4516 27.1156 22.9427 26.9271L22.6919 24.9429C21.1263 25.1408 19.7272 25.419 18.5755 25.7766C17.4486 26.1265 16.4562 26.5829 15.7988 27.1968L17.1639 28.6585ZM22.9427 26.9271C26.0053 26.54 27.2397 26.35 30.0209 26.35V24.35C27.0961 24.35 25.7427 24.5573 22.6919 24.9429L22.9427 26.9271ZM30.0209 26.35C32.8107 26.35 33.9227 26.4659 37.0803 26.9258L37.3686 24.9467C34.1502 24.4779 32.9369 24.35 30.0209 24.35V26.35ZM37.0803 26.9258C38.6455 27.1538 39.9902 27.4347 41.0169 27.7504C41.5304 27.9082 41.9452 28.069 42.2602 28.2263C42.5866 28.3893 42.7483 28.5204 42.8125 28.5927L44.3082 27.265C44.003 26.9211 43.5864 26.6531 43.1537 26.437C42.7096 26.2152 42.1843 26.0169 41.6047 25.8387C40.4452 25.4822 38.9913 25.183 37.3686 24.9467L37.0803 26.9258ZM42.8183 28.5992C43.0106 28.8121 43.0035 28.9243 43.0017 28.9497C42.998 29.0001 42.966 29.1215 42.7973 29.2994C42.4412 29.6751 41.7464 30.0067 41.0848 30.0851L41.3202 32.0712C42.3551 31.9485 43.5131 31.4513 44.2487 30.6755C44.6258 30.2778 44.9494 29.7428 44.9964 29.0943C45.0453 28.4208 44.7839 27.7915 44.3024 27.2585L42.8183 28.5992ZM42.2025 31.0781V31.0708H40.2025V31.0781H42.2025ZM54.9148 19.7211C54.878 19.8912 54.7666 20.0572 54.4223 20.2068C54.0566 20.3657 53.5351 20.4488 52.9467 20.4488V22.4488C53.6786 22.4488 54.5048 22.3515 55.2192 22.0412C55.9551 21.7215 56.6563 21.1294 56.8695 20.1442L54.9148 19.7211ZM52.9465 20.4488C50.7767 20.4493 48.6087 20.3269 46.4536 20.0822L46.228 22.0695C48.4582 22.3226 50.7017 22.4493 52.947 22.4488L52.9465 20.4488ZM46.4328 20.0801C46.6269 20.098 46.7645 20.1949 46.8386 20.2766C46.9077 20.3528 46.9337 20.4249 46.9437 20.472C46.9616 20.5556 46.9549 20.7455 46.777 20.882L45.5595 19.2953C44.994 19.7292 44.8823 20.395 44.9877 20.8891C45.0829 21.3357 45.4576 21.9985 46.2488 22.0716L46.4328 20.0801ZM46.7766 20.8823C47.3639 20.4321 48.5268 19.8184 50.206 19.3363L49.6541 17.4139C47.8103 17.9433 46.4002 18.6508 45.5598 19.295L46.7766 20.8823ZM50.2061 19.3362C52.8995 18.5626 54.2057 18.3393 55.2523 18.5416L55.6319 16.5779C54.0432 16.2708 52.2814 16.6593 49.654 17.414L50.2061 19.3362ZM55.2522 18.5415C55.099 18.5119 55.0204 18.4224 54.9994 18.3932C54.9877 18.377 54.981 18.3634 54.9763 18.3509C54.9723 18.3406 54.9626 18.3127 54.9579 18.2636L56.949 18.0747C56.9214 17.7845 56.8063 17.4798 56.6221 17.2241C56.4307 16.9585 56.1065 16.6697 55.632 16.578L55.2522 18.5415ZM54.9645 18.3177C55.0344 18.7832 55.018 19.2572 54.9159 19.7172L56.8684 20.1505C57.0237 19.4507 57.0488 18.7292 56.9423 18.0206L54.9645 18.3177ZM56.8922 19.9339V19.9327H54.8922V19.9339H56.8922Z" fill="#0066FF" mask="url(#path-1-inside-1_2_2137)"/>
</svg>
