<svg width="59" height="55" viewBox="0 0 59 55" fill="none" xmlns="http://www.w3.org/2000/svg">
<path d="M36.746 14.6294L36.746 14.6296L36.7571 14.6356C36.9626 14.7479 37.1432 14.9005 37.2882 15.0843C37.4331 15.2682 37.5393 15.4794 37.6005 15.7053C37.6616 15.9311 37.6765 16.167 37.644 16.3988C37.6116 16.6305 37.5326 16.8534 37.4118 17.0538L37.4118 17.0538L37.4072 17.0617L24.3194 39.7062C24.3191 39.7068 24.3187 39.7074 24.3184 39.708C24.1592 39.9772 23.9328 40.2005 23.6615 40.3562C23.3895 40.5123 23.0816 40.595 22.768 40.5964L22.7583 40.5964L22.7487 40.5968C22.4481 40.6097 22.1505 40.5329 21.8938 40.3763L21.8871 40.3723L21.8804 40.3684C21.6768 40.2528 21.4982 40.098 21.3548 39.913C21.2114 39.728 21.1061 39.5165 21.045 39.2906C20.9838 39.0648 20.968 38.8291 20.9985 38.5971C21.029 38.3651 21.1051 38.1414 21.2226 37.939L21.223 37.9383L34.313 15.2899L34.3147 15.2869C34.4304 15.0835 34.5853 14.9049 34.7704 14.7616C34.9555 14.6183 35.1672 14.513 35.3932 14.4519C35.6193 14.3907 35.8552 14.3749 36.0874 14.4054C36.3196 14.4359 36.5435 14.512 36.746 14.6294ZM26.4504 21.7272L26.4497 21.7474L26.4505 21.7677C26.5344 23.7292 25.8366 25.6439 24.5101 27.092C23.1887 28.5346 21.3508 29.3968 19.3967 29.4915C17.4392 29.3967 15.5973 28.5353 14.27 27.0934C12.9376 25.6459 12.2318 23.7307 12.3064 21.7652L12.3071 21.7474L12.3065 21.7296C12.2412 19.7701 12.9511 17.8637 14.2825 16.4236C15.6088 14.9892 17.4453 14.1326 19.3967 14.0377C21.3446 14.1325 23.1771 14.99 24.4975 16.425C25.823 17.8657 26.525 19.7716 26.4504 21.7272ZM19.3393 25.9078L19.3968 25.9144L19.4543 25.9078C20.4602 25.7912 21.3805 25.2855 22.018 24.4989C22.645 23.7252 22.9493 22.7402 22.8689 21.749C22.9603 20.754 22.6596 19.7617 22.0296 18.9843C21.3891 18.194 20.4608 17.6904 19.4489 17.5842L19.3967 17.5788L19.3446 17.5842C18.331 17.6906 17.4002 18.1919 16.7539 18.9797C16.1169 19.7561 15.807 20.7492 15.8884 21.7489C15.8177 22.7449 16.1311 23.7308 16.7652 24.5036C17.4086 25.2878 18.3316 25.7912 19.3393 25.9078ZM32.2163 33.2384L32.2172 33.2182L32.2164 33.198C32.1418 31.2423 32.8438 29.3364 34.1693 27.8958C35.4897 26.4608 37.3223 25.6033 39.2701 25.5085C41.2215 25.6034 43.058 26.4599 44.3843 27.8944C45.7157 29.3344 46.4257 31.2408 46.3604 33.2004L46.3598 33.2182L46.3604 33.236C46.435 35.2014 45.7292 37.1167 44.3968 38.5642C43.0695 40.0061 41.2277 40.8675 39.2701 40.9623C37.316 40.8676 35.4781 40.0054 34.1567 38.5628C32.8302 37.1147 32.1324 35.1999 32.2163 33.2384ZM39.2125 37.3785L39.27 37.3852L39.3275 37.3786C40.3352 37.262 41.2583 36.7586 41.9016 35.9744C42.5357 35.2016 42.8491 34.2157 42.7784 33.2197C42.8599 32.2199 42.5499 31.2269 41.9129 30.4505C41.2666 29.6627 40.3358 29.1614 39.3223 29.055L39.2674 29.0493L39.2125 29.0556C38.2066 29.1722 37.2863 29.6779 36.6489 30.4645C36.0212 31.2389 35.717 32.2249 35.7982 33.2171C35.717 34.2092 36.0212 35.1952 36.6489 35.9697C37.2863 36.7563 38.2066 37.262 39.2125 37.3785Z" fill="#0066FF" stroke="#0066FF"/>
<path d="M29.3176 0.513857L29.3333 0.514352L29.3491 0.513857C36.7517 0.280879 43.9443 2.99367 49.3474 8.05649C54.7464 13.1155 57.9177 20.1078 58.1664 27.5C57.9177 34.8922 54.7464 41.8845 49.3474 46.9435C43.9443 52.0063 36.7517 54.7191 29.3491 54.4861L29.3333 54.4856L29.3176 54.4861C21.915 54.7191 14.7224 52.0063 9.3193 46.9435C3.92022 41.8845 0.748922 34.8922 0.500278 27.5C0.748922 20.1078 3.92022 13.1155 9.3193 8.05649C14.7224 2.99367 21.915 0.280879 29.3176 0.513857ZM4.08375 27.4796L4.08292 27.5L4.08375 27.5204C4.34679 33.9652 7.15289 40.0436 11.8881 44.4258C16.619 48.804 22.8906 51.1331 29.3333 50.9052C35.7761 51.1331 42.0477 48.804 46.7785 44.4258C51.5138 40.0436 54.3199 33.9652 54.5829 27.5204L54.5838 27.5L54.5829 27.4796C54.3199 21.0348 51.5138 14.9564 46.7785 10.5742C42.0477 6.19602 35.7761 3.86687 29.3333 4.09477C22.8906 3.86687 16.619 6.19602 11.8881 10.5742C7.15289 14.9564 4.34679 21.0348 4.08375 27.4796Z" fill="#0066FF" stroke="#0066FF"/>
</svg>
