<svg width="60" height="42" viewBox="0 0 60 42" fill="none" xmlns="http://www.w3.org/2000/svg">
<path d="M3.20926 3.20926C4.94397 1.47455 7.29675 0.5 9.75 0.5H50.25C51.4647 0.5 52.6676 0.739259 53.7898 1.20411C54.9121 1.66897 55.9318 2.35032 56.7907 3.20926C57.6497 4.0682 58.331 5.08792 58.7959 6.21018C59.2607 7.33244 59.5 8.53527 59.5 9.75V13H0.5V9.75C0.5 7.29675 1.47455 4.94397 3.20926 3.20926ZM0.5 32.25V18.5H59.5V32.25C59.5 33.4647 59.2607 34.6676 58.7959 35.7898C58.331 36.9121 57.6497 37.9318 56.7907 38.7907C55.9318 39.6497 54.9121 40.331 53.7898 40.7959C52.6676 41.2607 51.4647 41.5 50.25 41.5H9.75C7.29675 41.5 4.94397 40.5255 3.20926 38.7907C1.47455 37.056 0.5 34.7033 0.5 32.25ZM48.75 28H41.25C40.5207 28 39.8212 28.2897 39.3055 28.8055C38.7897 29.3212 38.5 30.0207 38.5 30.75C38.5 31.4793 38.7897 32.1788 39.3055 32.6945C39.8212 33.2103 40.5207 33.5 41.25 33.5H48.75C49.4793 33.5 50.1788 33.2103 50.6945 32.6945C51.2103 32.1788 51.5 31.4793 51.5 30.75C51.5 30.0207 51.2103 29.3212 50.6945 28.8055C50.1788 28.2897 49.4793 28 48.75 28Z" fill="#0066FF" stroke="#0066FF"/>
</svg>
