<svg width="39" height="52" viewBox="0 0 39 52" fill="none" xmlns="http://www.w3.org/2000/svg">
<path d="M10.25 19.5V19H9.75H1.20711L5.22855 14.9786L16.4086 3.79855L19.5 0.707107L22.5914 3.79855L33.7714 14.9786L37.7929 19H29.25H28.75V19.5V41.75H10.25V19.5ZM19.8536 6.5397L19.5 6.18614L19.1464 6.5397L11.4147 14.2714L10.5611 15.125H11.7682H14.125V37.375V37.875H14.625H24.375H24.875V37.375V15.125H27.2317H28.4389L27.5853 14.2714L19.8536 6.5397ZM10.8175 48.1925C11.1808 47.8291 11.6736 47.625 12.1875 47.625H26.8125C27.3264 47.625 27.8192 47.8291 28.1825 48.1925C28.5459 48.5558 28.75 49.0486 28.75 49.5625C28.75 50.0764 28.5459 50.5692 28.1825 50.9325C27.8192 51.2959 27.3264 51.5 26.8125 51.5H12.1875C11.6736 51.5 11.1808 51.2959 10.8175 50.9325C10.4541 50.5692 10.25 50.0764 10.25 49.5625C10.25 49.0486 10.4541 48.5558 10.8175 48.1925Z" fill="#0066FF" stroke="white"/>
</svg>
